<?xml version="1.0" encoding="utf-8"?>
<!-- Generator: Adobe Illustrator 23.0.5, SVG Export Plug-In . SVG Version: 6.00 Build 0)  -->
<svg version="1.1" xmlns="http://www.w3.org/2000/svg" xmlns:xlink="http://www.w3.org/1999/xlink" x="0px" y="0px"
	 viewBox="0 0 448.62 421.74" style="enable-background:new 0 0 448.62 421.74;" xml:space="preserve">
<style type="text/css">
	.st0{fill:#ADA080;}
	.st1{fill:#81453E;}
	.st2{fill:#A44E45;}
	.st3{fill:#CABA92;}
	.st4{fill:#CF7470;}
	.st5{fill:#0D0E0F;}
	.st6{fill:#AC4F46;}
	.st7{fill:#CC4B44;}
	.st8{fill:#FFFFFF;}
	.st9{fill:#C46060;}
</style>
<g id="Слой_11">
	<path class="st0" d="M280.1,353.41L280.1,353.41c-20.92,0-38.03-17.11-38.03-38.03v-53.22c0-20.92,17.11-38.03,38.03-38.03h0
		c20.92,0,38.03,17.11,38.03,38.03v53.22C318.13,336.3,301.02,353.41,280.1,353.41z"/>
</g>
<g id="Слой_10">
	<path class="st0" d="M280.1,418.05L280.1,418.05c-20.92,0-38.03-17.11-38.03-38.03V326.8c0-20.92,17.11-38.03,38.03-38.03h0
		c20.92,0,38.03,17.11,38.03,38.03v53.22C318.13,400.94,301.02,418.05,280.1,418.05z"/>
</g>
<g id="Слой_9">
	<path class="st0" d="M54.12,134.76l115.61-34.37c13.73-4.08,28.31,3.81,32.39,17.55l5.8,19.52c4.08,13.73-3.81,28.31-17.55,32.39
		L74.76,204.22c-13.73,4.08-28.31-3.81-32.39-17.55l-5.8-19.52C32.49,153.42,40.38,138.84,54.12,134.76z"/>
</g>
<g id="Слой_8">
	<path class="st0" d="M191.11,354.3L191.11,354.3c-20.92,0-38.03-17.11-38.03-38.03v-53.22c0-20.92,17.11-38.03,38.03-38.03h0
		c20.92,0,38.03,17.11,38.03,38.03v53.22C229.14,337.19,212.02,354.3,191.11,354.3z"/>
</g>
<g id="Слой_7">
	<path class="st0" d="M191.11,418.94L191.11,418.94c-20.92,0-38.03-17.11-38.03-38.03v-53.22c0-20.92,17.11-38.03,38.03-38.03h0
		c20.92,0,38.03,17.11,38.03,38.03v53.22C229.14,401.83,212.02,418.94,191.11,418.94z"/>
</g>
<g id="Слой_6">
	<path class="st0" d="M392.33,225.91l-102.17-64.1c-12.14-7.61-15.84-23.78-8.22-35.91l10.82-17.25
		c7.61-12.14,23.78-15.84,35.91-8.22l102.17,64.1c12.14,7.61,15.84,23.78,8.22,35.91l-10.82,17.25
		C420.63,229.82,404.47,233.52,392.33,225.91z"/>
</g>
<g id="Слой_5">
	<g>
		<path class="st1" d="M294.29,222.15c19.5,0,36.46,10.89,45.13,26.92c13.28-18.73,21.08-41.6,21.08-66.31
			C360.5,119.38,309.12,68,245.74,68c-54.03,0-99.33,37.34-111.53,87.61l-3.67-5.73c-0.81-1.26-2.49-1.63-3.75-0.82
			c-1.26,0.81-1.63,2.49-0.82,3.75l4.4,6.87l-6.87,4.4c-1.26,0.81-1.63,2.49-0.82,3.75c0.81,1.26,2.49,1.63,3.75,0.82l5.94-3.8
			c-0.92,5.84-1.4,11.83-1.4,17.93c0,63.39,51.38,114.77,114.77,114.77c1.09,0,2.18-0.02,3.26-0.05
			c-3.82-7.17-5.99-15.36-5.99-24.05C243.01,245.11,265.97,222.15,294.29,222.15z"/>
		<circle class="st2" cx="170.36" cy="167.9" r="6.67"/>
		<circle class="st2" cx="200.82" cy="218.23" r="23.79"/>
		<path class="st2" d="M339.42,249.07c-8.67-16.03-25.63-26.92-45.13-26.92c-28.32,0-51.28,22.96-51.28,51.28
			c0,8.69,2.17,16.88,5.99,24.05C286.34,296.45,319.22,277.57,339.42,249.07z"/>
	</g>
</g>
<g id="Слой_4">
	<path class="st3" d="M312.05,272.59l68.36-108.96c7.61-12.14,23.78-15.84,35.91-8.22l14.53,9.11c12.14,7.61,15.84,23.78,8.22,35.91
		L370.71,309.4c-7.61,12.14-23.78,15.84-35.91,8.22l-14.53-9.11C308.13,300.89,304.43,284.73,312.05,272.59z"/>
</g>
<g id="Слой_3">
	<path class="st3" d="M71.64,44.2l36.65,123.29c4.08,13.73-3.81,28.31-17.55,32.39l-16.44,4.89c-13.73,4.08-28.31-3.81-32.39-17.55
		L5.26,63.93C1.18,50.2,9.07,35.62,22.81,31.54l16.44-4.89C52.98,22.57,67.56,30.46,71.64,44.2z"/>
</g>
<g id="Слой_2">
	<g>
		<g>
			<circle class="st3" cx="166.77" cy="78.15" r="18.05"/>
			<circle class="st4" cx="166.77" cy="78.15" r="8.72"/>
			<circle class="st3" cx="271.38" cy="78.15" r="18.05"/>
			<circle class="st4" cx="271.38" cy="78.15" r="8.72"/>
			<g>
				<path class="st5" d="M219.08,142.77L219.08,142.77c-28.77,0-52.31-23.54-52.31-52.31V68.04c0-28.77,23.54-52.31,52.31-52.31h0
					c28.77,0,52.31,23.54,52.31,52.31v22.42C271.38,119.23,247.85,142.77,219.08,142.77z"/>
				<path class="st3" d="M240,81.54h-41.85c-6.6,0-12-5.4-12-12v-3.08c0-6.6,5.4-12,12-12H240c6.6,0,12,5.4,12,12v3.08
					C252,76.14,246.6,81.54,240,81.54z"/>
				<g>
					<path class="st6" d="M213.87,121.63c1.67,0,3.26,0.3,4.74,0.83c0.09-0.65,0.15-1.3,0.15-1.98c0-3.51-1.27-6.71-3.37-9.2
						l-2.95,5.11c-0.91,1.58-2.95,2.12-4.52,1.21c-1.58-0.91-2.12-2.95-1.21-4.52l3.32-5.75c-1.7-0.71-3.56-1.11-5.51-1.11
						c-3.64,0-6.94,1.37-9.46,3.61l3.93,5.38c1.07,1.47,0.75,3.55-0.72,4.63c-1.47,1.07-3.55,0.75-4.63-0.72l-2.53-3.46
						c-0.54,1.51-0.85,3.12-0.85,4.81c0,6.21,3.98,11.47,9.51,13.43C200.73,126.97,206.67,121.63,213.87,121.63z"/>
					<path class="st7" d="M218.62,122.46c-1.49-0.52-3.08-0.83-4.74-0.83c-7.2,0-13.14,5.34-14.1,12.28
						c1.49,0.52,3.08,0.83,4.74,0.83C211.71,134.74,217.65,129.39,218.62,122.46z"/>
					<path class="st8" d="M198.26,119.84c1.47-1.07,1.79-3.16,0.72-4.63l-3.93-5.38c-1.76,1.57-3.13,3.56-3.94,5.83l2.53,3.46
						C194.71,120.6,196.79,120.92,198.26,119.84z"/>
					<path class="st8" d="M207.92,117.6c1.58,0.91,3.61,0.37,4.52-1.21l2.95-5.11c-1.44-1.71-3.28-3.07-5.37-3.95l-3.32,5.75
						C205.8,114.65,206.34,116.69,207.92,117.6z"/>
				</g>
				<circle class="st5" cx="196.88" cy="68" r="3.56"/>
				<circle class="st5" cx="239.45" cy="68" r="3.56"/>
				<path class="st9" d="M219.08,101.85L219.08,101.85c-4.99,0-9.08-4.08-9.08-9.08V77.08c0-4.99,4.08-9.08,9.08-9.08h0
					c4.99,0,9.08,4.08,9.08,9.08v15.69C228.15,97.76,224.07,101.85,219.08,101.85z"/>
			</g>
		</g>
		<path class="st5" d="M252.26,14.46l-9.91,2.61l-2.61-9.91c-0.48-1.84-2.39-2.95-4.22-2.46c-1.84,0.48-2.95,2.39-2.46,4.22
			l3.49,13.25c0.48,1.84,2.39,2.95,4.22,2.46l13.25-3.49c1.84-0.48,2.95-2.39,2.46-4.22C256,15.08,254.1,13.97,252.26,14.46z"/>
		<path class="st5" d="M185.78,18.02l-0.47,7.23l-7.23-0.47c-1.34-0.09-2.51,0.94-2.6,2.28s0.94,2.51,2.28,2.6l9.67,0.62
			c1.34,0.09,2.51-0.94,2.6-2.28l0.62-9.67c0.09-1.34-0.94-2.51-2.28-2.6S185.87,16.68,185.78,18.02z"/>
	</g>
</g>
</svg>
