<?xml version="1.0" encoding="utf-8"?>
<!-- Generator: Adobe Illustrator 23.0.5, SVG Export Plug-In . SVG Version: 6.00 Build 0)  -->
<svg version="1.1" xmlns="http://www.w3.org/2000/svg" xmlns:xlink="http://www.w3.org/1999/xlink" x="0px" y="0px"
	 viewBox="0 0 5730.56 4396.28" style="enable-background:new 0 0 5730.56 4396.28;" xml:space="preserve">
<style type="text/css">
	.st0{fill:#FFFFFF;}
	.st1{fill:#B36CFF;}
	.st2{fill:#C4C4C4;}
	.st3{fill:#F4F938;}
</style>
<g id="Слой_1">
</g>
<g id="Слой_2">
	
		<rect x="1786.71" y="526.59" transform="matrix(0.8568 -0.5156 0.5156 0.8568 -649.0183 1828.704)" class="st0" width="2363.08" height="3112.77"/>
	
		<rect x="1513.77" y="1093.44" transform="matrix(0.8568 -0.5156 0.5156 0.8568 -498.7442 1262.1819)" class="st1" width="1019.08" height="871.38"/>
	
		<rect x="2300.52" y="583.78" transform="matrix(0.8568 -0.5156 0.5156 0.8568 70.6649 1514.3474)" class="st2" width="923.08" height="92.31"/>
	
		<rect x="2386.19" y="726.14" transform="matrix(0.8568 -0.5156 0.5156 0.8568 9.5264 1578.9039)" class="st2" width="923.08" height="92.31"/>
	
		<rect x="2468.06" y="862.18" transform="matrix(0.8568 -0.5156 0.5156 0.8568 -48.895 1640.5913)" class="st2" width="923.08" height="92.31"/>
	
		<rect x="2546.11" y="991.89" transform="matrix(0.8568 -0.5156 0.5156 0.8568 -104.599 1699.4094)" class="st2" width="923.08" height="92.31"/>
	
		<rect x="2624.17" y="1121.6" transform="matrix(0.8568 -0.5156 0.5156 0.8568 -160.303 1758.2277)" class="st2" width="923.08" height="92.31"/>
	
		<rect x="2702.23" y="1251.31" transform="matrix(0.8568 -0.5156 0.5156 0.8568 -216.0071 1817.0458)" class="st2" width="923.08" height="92.31"/>
	
		<rect x="1717.61" y="1676.11" transform="matrix(0.8568 -0.5156 0.5156 0.8568 -494.0725 1665.2755)" class="st2" width="2067.69" height="92.31"/>
	
		<rect x="1795.66" y="1805.82" transform="matrix(0.8568 -0.5156 0.5156 0.8568 -549.7766 1724.0938)" class="st2" width="2067.69" height="92.31"/>
	
		<rect x="1873.72" y="1935.53" transform="matrix(0.8568 -0.5156 0.5156 0.8568 -605.4806 1782.9119)" class="st2" width="2067.69" height="92.31"/>
	
		<rect x="2026.85" y="2335.58" transform="matrix(0.8568 -0.5156 0.5156 0.8568 -864.8964 1648.8038)" class="st2" width="1019.08" height="92.31"/>
	
		<rect x="3170.56" y="1726.8" transform="matrix(0.8568 -0.5156 0.5156 0.8568 -550.2313 2169.9548)" class="st3" width="923.08" height="697.85"/>
	
		<rect x="2104.9" y="2465.29" transform="matrix(0.8568 -0.5156 0.5156 0.8568 -920.6004 1707.6221)" class="st2" width="1019.08" height="92.31"/>
	
		<rect x="2182.96" y="2595" transform="matrix(0.8568 -0.5156 0.5156 0.8568 -976.3044 1766.4402)" class="st2" width="1019.08" height="92.31"/>
	
		<rect x="2261.01" y="2724.71" transform="matrix(0.8568 -0.5156 0.5156 0.8568 -1032.0085 1825.2584)" class="st2" width="1019.08" height="92.31"/>
	
		<rect x="2339.07" y="2854.42" transform="matrix(0.8568 -0.5156 0.5156 0.8568 -1087.7125 1884.0765)" class="st2" width="1019.08" height="92.31"/>
	
		<rect x="2342.05" y="2713.79" transform="matrix(0.8568 -0.5156 0.5156 0.8568 -939.7048 2135.821)" class="st2" width="2067.69" height="92.31"/>
	
		<rect x="2420.11" y="2843.5" transform="matrix(0.8568 -0.5156 0.5156 0.8568 -995.4089 2194.6392)" class="st2" width="2067.69" height="92.31"/>
	
		<rect x="2498.17" y="2973.21" transform="matrix(0.8568 -0.5156 0.5156 0.8568 -1051.1129 2253.4573)" class="st2" width="2067.69" height="92.31"/>
	
		<rect x="2576.22" y="3102.92" transform="matrix(0.8568 -0.5156 0.5156 0.8568 -1106.8169 2312.2754)" class="st2" width="2067.69" height="92.31"/>
	
		<rect x="2654.28" y="3232.63" transform="matrix(0.8568 -0.5156 0.5156 0.8568 -1162.521 2371.0938)" class="st2" width="2067.69" height="92.31"/>
</g>
<g id="Слой_3">
</g>
</svg>
