<?xml version="1.0" encoding="utf-8"?>
<!-- Generator: Adobe Illustrator 23.0.5, SVG Export Plug-In . SVG Version: 6.00 Build 0)  -->
<svg version="1.1" xmlns="http://www.w3.org/2000/svg" xmlns:xlink="http://www.w3.org/1999/xlink" x="0px" y="0px"
	 viewBox="0 0 3800.62 2512.59" style="enable-background:new 0 0 3800.62 2512.59;" xml:space="preserve">
<style type="text/css">
	.st0{fill:#C5C781;}
	.st1{fill:#E1E78E;}
	.st2{fill:#808686;}
	.st3{fill:#C7C980;}
	.st4{fill:#444848;}
	.st5{fill:#2A2A26;}
	.st6{fill:#DA726F;}
	.st7{fill:#DADADA;}
	.st8{fill:#313333;}
	.st9{fill:#000105;}
	.st10{fill:#F6D273;}
	.st11{fill:#784D6B;}
	.st12{fill:#A8ADB3;}
	.st13{fill:#6D707A;}
	.st14{fill:#BABA7B;}
	.st15{fill:#8D6643;}
	.st16{fill:#D7B66C;}
</style>
<g id="Слой_49">
	<path class="st0" d="M2510.39,654.67l-185.46-57.91c-1.62-0.5-2.52-2.24-2.02-3.85l14.02-44.89c0.5-1.62,2.24-2.52,3.85-2.02
		l185.46,57.91c1.62,0.5,2.52,2.24,2.02,3.85l-14.02,44.89C2513.74,654.27,2512,655.18,2510.39,654.67z"/>
</g>
<g id="Слой_48">
	<path class="st1" d="M2359.65,603.34c19.6-30.88-28.6-68.12-63-98.67s-90.49-12.35-102.21,0.84c-7.45,8.38,75.57,25.79,88.83,45.2
		c7.6,11.12-14.68,14.13-2.15,25.26L2359.65,603.34z"/>
</g>
<g id="Слой_47">
	<path class="st1" d="M2164.03,425.59c-9.78,35.24,47.15,56.88,88.94,76.12s90.18-14.46,97.56-30.48
		c4.69-10.18-79.8-2.74-98.13-17.45c-10.5-8.43,9.95-17.79-5.28-24.8L2164.03,425.59z"/>
</g>
<g id="Слой_46">
	<path class="st1" d="M2500.78,647.82l-185.46-57.91c-1.62-0.5-2.52-2.24-2.02-3.85l14.02-44.89c0.5-1.62,2.24-2.52,3.85-2.02
		l185.46,57.91c1.62,0.5,2.52,2.24,2.02,3.85l-14.02,44.89C2504.13,647.41,2502.4,648.32,2500.78,647.82z"/>
</g>
<g id="Слой_22">
	<path class="st2" d="M1210.65,1271.49l16.46,681.36c0,0,15.69,9.35,25.71,7.56c10.03-1.79,30.09-5.37,30.09-12.54
		c0-7.16,11.06-674,11.06-674L1210.65,1271.49z"/>
</g>
<g id="Слой_44">
	<path class="st3" d="M2011.68,431.57l193.78-14.15c1.69-0.12,3.17,1.16,3.29,2.84l3.43,46.9c0.12,1.69-1.16,3.17-2.84,3.29
		l-193.78,14.15c-1.69,0.12-3.17-1.16-3.29-2.84l-3.43-46.9C2008.71,433.18,2009.99,431.7,2011.68,431.57z"/>
</g>
<g id="Слой_43">
	<path class="st1" d="M2012.18,438.46l193.78-14.15c1.69-0.12,3.17,1.16,3.29,2.84l3.43,46.9c0.12,1.69-1.16,3.17-2.84,3.29
		l-193.78,14.15c-1.69,0.12-3.17-1.16-3.29-2.84l-3.43-46.9C2009.21,440.07,2010.49,438.59,2012.18,438.46z"/>
</g>
<g id="Слой_45">
	<path class="st4" d="M1963.88,997.01c20.45,3.56,36.63-41.73,36.63-41.73L2055.95,539l12.22-60.77l9.34-2.62l8.8-8.38l-2.08-13.65
		l5.7-17.78l-12.4-4.13l-90.64,31.94l4.52,15.87l-11.85,23.59l13.23-3.71c-18.11,98.5-63.99,349.65-72.41,412.5
		C1909.84,990.52,1943.43,993.45,1963.88,997.01z"/>
</g>
<g id="Слой_42">
	<path class="st5" d="M1918.78,1777.74l-16.16-2.81c-1.11-0.19-1.86-1.26-1.66-2.36l68.9-395.94c0.19-1.11,1.26-1.86,2.36-1.66
		l16.16,2.81c1.11,0.19,1.86,1.26,1.66,2.36l-68.9,395.94C1920.95,1777.18,1919.88,1777.93,1918.78,1777.74z"/>
</g>
<g id="Слой_41">
	<path class="st5" d="M2256.12,1637.73l-15.72,4.69c-1.08,0.32-2.22-0.3-2.54-1.37l-98.19-328.76c-0.32-1.08,0.3-2.22,1.37-2.54
		l15.72-4.69c1.08-0.32,2.22,0.3,2.54,1.37l98.19,328.76C2257.81,1636.26,2257.19,1637.41,2256.12,1637.73z"/>
</g>
<g id="Слой_40">
	<path class="st5" d="M2142.3,1592.99l-15.57,5.16c-1.07,0.35-2.23-0.23-2.58-1.3l-77.8-234.99c-0.35-1.07,0.23-2.23,1.3-2.58
		l15.57-5.16c1.07-0.35,2.23,0.23,2.58,1.3l77.8,234.99C2143.95,1591.48,2143.37,1592.64,2142.3,1592.99z"/>
</g>
<g id="Слой_39">
	<path class="st5" d="M1591.19,1735.47l-15.65-4.93c-1.07-0.34-1.67-1.49-1.34-2.56l115.95-368.38c0.34-1.07,1.49-1.67,2.56-1.34
		l15.65,4.93c1.07,0.34,1.67,1.49,1.34,2.56l-115.95,368.38C1593.42,1735.21,1592.27,1735.81,1591.19,1735.47z"/>
</g>
<g id="Слой_38">
	<path class="st6" d="M1148.81,1423.07l43.2,16.59c0,0,2.57,53.1,0,54.64c-2.57,1.54-207.77,0-207.77,0s1.54-25.2,7.2-25.2
		C997.1,1469.1,1148.81,1423.07,1148.81,1423.07z"/>
</g>
<g id="Слой_37">
	<rect x="979.61" y="1494.98" class="st7" width="217.55" height="14.74"/>
</g>
<g id="Слой_21">
	<path class="st8" d="M1239.91,1952.85l-16.45-680.99l-12.82-0.37l16.46,681.36c0,0,15.69,9.35,25.71,7.56
		c1.1-0.2,2.33-0.42,3.62-0.66C1248.11,1957.72,1239.91,1952.85,1239.91,1952.85z"/>
</g>
<g id="Слой_36">
	<path class="st9" d="M1108.61,1461.18l-4.4,1.46c-0.3,0.1-0.63-0.07-0.73-0.37l-9.45-28.53c-0.1-0.3,0.07-0.63,0.37-0.73l4.4-1.46
		c0.3-0.1,0.63,0.07,0.73,0.37l9.45,28.53C1109.08,1460.75,1108.91,1461.08,1108.61,1461.18z"/>
</g>
<g id="Слой_35">
	<path class="st9" d="M1097.96,1464.71l-4.4,1.46c-0.3,0.1-0.63-0.07-0.73-0.37l-9.45-28.53c-0.1-0.3,0.07-0.63,0.37-0.73l4.4-1.46
		c0.3-0.1,0.63,0.07,0.73,0.37l9.45,28.53C1098.42,1464.28,1098.26,1464.61,1097.96,1464.71z"/>
</g>
<g id="Слой_34">
	<path class="st9" d="M1087.69,1468.11l-4.4,1.46c-0.3,0.1-0.63-0.07-0.73-0.37l-9.45-28.53c-0.1-0.3,0.07-0.63,0.37-0.73l4.4-1.46
		c0.3-0.1,0.63,0.07,0.73,0.37l9.45,28.53C1088.16,1467.68,1087.99,1468.01,1087.69,1468.11z"/>
</g>
<g id="Слой_33">
	<path class="st10" d="M1677.07,1357.8c0,0,168.97,104.55,222.45,104.74c53.49,0.19,322.98-36.84,409.38-143.81
		s139.32-222.93,137.26-379.27s-65.83-187.2-96.69-203.66c-30.86-16.46-150.17-45.26-189.26-18.51
		c-39.09,26.74-75.38,45.26-77.8,63.77C2079.99,799.57,1677.07,1357.8,1677.07,1357.8z"/>
</g>
<g id="Слой_32">
	<path class="st9" d="M1705.38,1060.85l141.14,62.92c0,0,31.78,158.88-3.97,188.01c-35.75,29.13-339.22-214.3-339.22-214.3
		s-115.22,142.88-121.84,152.88c-6.62,10-166.16,180.8-166.16,180.8s-69.51-17.21-68.19-25.16c1.32-7.94,316.4-441.45,316.4-441.45
		L1705.38,1060.85z"/>
</g>
<g id="Слой_31">
	<path class="st11" d="M2354.86,1056c-48.67,92.2-200.8,192.89-276.96,152.69c-76.16-40.2-111.52-156.26-62.85-248.46
		c48.67-92.2,213.87-184.18,290.03-143.97C2381.25,856.46,2403.53,963.8,2354.86,1056z"/>
</g>
<g id="Слой_30">
</g>
<g id="Слой_29">
	<path class="st12" d="M1400.33,1271.49H533.2c-2.54,0-4.62-2.08-4.62-4.62v-37.06c0-2.54,2.08-4.62,4.62-4.62h867.12
		c2.54,0,4.62,2.08,4.62,4.62v37.06C1404.94,1269.41,1402.87,1271.49,1400.33,1271.49z"/>
</g>
<g id="Слой_28">
	<path class="st13" d="M1106.71,1225.2l10.8-23.11H915.4l-57.09-288.85c0,0-0.77-9.8-12.34-9.9c-18.58-0.17-324,0-324,0
		s-16.97,4.95-15.43,18.16s60.17,303.71,60.17,303.71H1106.71z"/>
</g>
<g id="Слой_27">
	<path class="st9" d="M1117.51,1202.09H915.4l-57.09-288.85c0,0-0.77-9.8-12.34-9.9c-18.58-0.17-324,0-324,0s-7.17,2.12-11.76,7.22
		c1.05-0.41,1.73-0.62,1.73-0.62s310.57-0.17,329.15,0c11.57,0.1,12.34,9.9,12.34,9.9l57.09,288.85h196.97L1117.51,1202.09z"/>
</g>
<g id="Слой_26">
	<path class="st6" d="M2207.8,707.34c0.59,0.3,1.34,0.74,2.23,1.3c27.65,17.47,36.63,53.67,21.11,82.46
		c-65.57,121.68-234.89,436.66-232.22,439.79c3.3,3.87-2.35,43.47-14.22,60.03c-11.87,16.56-21.73,16.05-21.73,16.05
		s-160.96-104.79-166.52-109.94c-5.57-5.15-46.01-25.33-46.01-25.33l168.06-365.15c5.02-10.56,10.94-37.12,20.57-43.74
		c0,0,58.24-61.72,111.86-60.94C2104.54,702.64,2207.8,707.34,2207.8,707.34z"/>
</g>
<g id="Слой_24">
	<path class="st2" d="M720.53,1271.49l16.46,681.36c0,0,15.69,9.35,25.71,7.56c10.03-1.79,30.09-5.37,30.09-12.54
		c0-7.16,11.06-674,11.06-674L720.53,1271.49z"/>
</g>
<g id="Слой_23">
	<path class="st8" d="M749.79,1952.85l-16.45-680.99l-12.82-0.37l16.46,681.36c0,0,15.69,9.35,25.71,7.56
		c1.1-0.2,2.33-0.42,3.62-0.66C757.99,1957.72,749.79,1952.85,749.79,1952.85z"/>
</g>
<g id="Слой_20">
</g>
<g id="Слой_19">
	<polygon class="st1" points="1163.64,1404.66 1149.58,1424.35 1192.78,1440.94 1207.47,1418.44 	"/>
</g>
<g id="Слой_18">
</g>
<g id="Слой_17">
</g>
<g id="Слой_16">
</g>
<g id="Слой_15">
</g>
<g id="Слой_14">
	<g>
		<path class="st4" d="M1831.67,1197.26l123.44,100.25c0,0-41.66,133.65-87.73,131.8c-46.08-1.85-319.13-219.25-319.13-219.25
			s-155.46,47.95-167.05,51.06s-244.24,25.44-244.24,25.44s-40.69-58.93-34.44-64s480.21-137.51,480.21-137.51L1831.67,1197.26z"/>
		<polygon class="st1" points="1106.42,1237.08 1082.85,1242.53 1104.24,1283.56 1130.14,1276.43 		"/>
		<path class="st6" d="M1082.85,1242.53l21.39,41.04c0,0-33.24,41.49-36.18,40.95c-2.95-0.55-155.69-137.59-155.69-137.59
			s17.84-17.86,22.08-14.12C938.69,1176.55,1082.85,1242.53,1082.85,1242.53z"/>
		
			<rect x="977.69" y="1153.15" transform="matrix(0.6622 -0.7493 0.7493 0.6622 -612.8367 1164.4154)" class="st7" width="14.74" height="217.55"/>
		<path class="st9" d="M1027.49,1244.46l-4.26-1.82c-0.29-0.12-0.43-0.47-0.3-0.76l11.82-27.64c0.12-0.29,0.47-0.43,0.76-0.3
			l4.26,1.82c0.29,0.12,0.43,0.47,0.3,0.76l-11.82,27.64C1028.12,1244.45,1027.78,1244.59,1027.49,1244.46z"/>
		<path class="st9" d="M1017.17,1240.05l-4.26-1.82c-0.29-0.12-0.43-0.47-0.3-0.76l11.82-27.64c0.12-0.29,0.47-0.43,0.76-0.3
			l4.26,1.82c0.29,0.12,0.43,0.47,0.3,0.76l-11.82,27.64C1017.8,1240.04,1017.46,1240.18,1017.17,1240.05z"/>
		<path class="st9" d="M1007.23,1235.8l-4.26-1.82c-0.29-0.12-0.43-0.47-0.3-0.76l11.82-27.64c0.12-0.29,0.47-0.43,0.76-0.3
			l4.26,1.82c0.29,0.12,0.43,0.47,0.3,0.76l-11.82,27.64C1007.86,1235.79,1007.52,1235.92,1007.23,1235.8z"/>
	</g>
</g>
<g id="Слой_13">
	<polygon class="st1" points="2103.57,705.49 2114.04,650.3 2219.45,661.45 2210.41,714.45 	"/>
</g>
<g id="Слой_12">
	<path class="st1" d="M2333.66,561.12c0,72.87-71.74,116.67-147.8,116.67s-89.6-10.5-89.6-83.37c0-22.71,35.16-75.94,45.71-94.6
		c23.3-41.21,72.81-64.1,125.17-64.1C2343.2,435.72,2333.66,488.26,2333.66,561.12z"/>
</g>
<g id="Слой_11">
	<path class="st14" d="M2142.51,560.07h36.54c0.39,0,0.72-0.32,0.72-0.72V546.9c0-0.39-0.32-0.72-0.72-0.72h-36.54
		c-0.39,0-0.72,0.32-0.72,0.72v12.45C2141.8,559.75,2142.12,560.07,2142.51,560.07z"/>
</g>
<g id="Слой_10">
	<path class="st15" d="M2154.25,508.18l36.5,1.71c0.39,0.02,0.73-0.29,0.75-0.68l0.32-6.74c0.02-0.39-0.29-0.73-0.68-0.75
		l-36.5-1.71c-0.39-0.02-0.73,0.29-0.75,0.68l-0.32,6.74C2153.55,507.83,2153.85,508.16,2154.25,508.18z"/>
</g>
<g id="Слой_9">
	<path class="st15" d="M2178.02,565.32c-32.29,0-61.31,9.39-81.33,24.31c-0.28,1.71-0.44,3.32-0.44,4.79
		c0,72.87,13.53,83.37,89.6,83.37c37.2,0,73.34-10.5,100.58-29.72c0.6-3.1,0.94-6.25,0.94-9.46
		C2287.37,598.14,2238.42,565.32,2178.02,565.32z"/>
</g>
<g id="Слой_8">
	<path class="st15" d="M2220.75,517.62l23.41,28.06c0.25,0.3,0.71,0.34,1.01,0.09l5.18-4.33c0.3-0.25,0.34-0.71,0.09-1.01
		l-23.41-28.06c-0.25-0.3-0.71-0.34-1.01-0.09l-5.18,4.33C2220.54,516.86,2220.5,517.32,2220.75,517.62z"/>
</g>
<g id="Слой_7">
	<path class="st9" d="M2129.99,618.3l92.74-24.82c0,0-22.15,55.79-46.37,56.82S2129.99,618.3,2129.99,618.3z"/>
</g>
<g id="Слой_6">
	<path class="st4" d="M2079.78,859.46c3.26,23.42,40.44,14.7,40.44,14.7l315.13-177.75l47.18-21.63l4.54,8.29l8.53,4.46l9.23-9.9
		l14.41-4.11l-0.56-15.32l-48.77-76.76l-10.13,13.71l-20.34,0.96l6.43,11.75c-75.98,36.83-269.65,131.06-317.24,157.85
		C2069.07,799.23,2076.52,836.04,2079.78,859.46z"/>
</g>
<g id="Слой_5">
	<polygon class="st15" points="2193.71,356.7 2159.7,468.93 2200.56,456.36 2196.94,499.41 2258.07,482.87 2298.13,492.94 
		2312.07,591.14 2319.13,618.3 2361.19,528.69 2341.97,462.56 2248.6,406.72 2250.45,317.08 2218.17,369.59 2214.93,291.39 	"/>
</g>
<g id="Слой_4">
	<path class="st14" d="M2232.76,545.67c-3.28,6.41-11.12,8.94-17.53,5.67s-8.94-11.12-5.67-17.53"/>
</g>
<g id="Слой_3">
	<path class="st14" d="M2182.54,524.52c-2.26,7.03-9.79,10.9-16.82,8.64s-10.9-9.79-8.64-16.82"/>
</g>
<g id="Слой_25">
	<path class="st16" d="M1985.92,1147.98c-98.74,0-74.06,255.09-117.26,257.15c-43.2,2.06-75.78-19.51-75.78-19.51l-115.81-27.82
		c0,0,160.18,107.86,206.46,106.64c199.55-5.27,375.53-102.23,375.53-102.23c24.17-13.01,69.38-64.21,106.29-123
		c55.62-88.61,70.31-178.35,70.31-178.35L1985.92,1147.98z"/>
</g>
<g id="Слой_50">
	<polygon class="st9" points="1323.95,1159.6 1210.65,1318.51 1300.15,1339.96 1499.02,1102.82 1356.38,1116.49 	"/>
</g>
<g id="Слой_51">
	<path class="st12" d="M671.44,1037.68c-4.1,4.2-7.38,4.2-5.33,9.9s4.51,5.83,9.03,4.67c4.51-1.16,11.08-1.16,9.03,6.3
		c-2.05,7.46-9.44,10.97-13.13,10.09c-3.69-0.88-7.79,5.27-3.28,8.78c4.51,3.51,24.62,8.34,32.82,0c8.21-8.34,14.36-40.38,0-43.01
		c-4.53-0.83-9.1-0.81-13.24-0.4C678.36,1034.92,671.44,1037.68,671.44,1037.68z"/>
	<path class="st12" d="M695.48,1022.02c7.79-2.19,21.33,0.44,12.72,7.46c-8.62,7.02-17.04,16.18-18.98,16.87
		C687.28,1047.04,695.48,1022.02,695.48,1022.02z"/>
</g>
</svg>
